<?xml version="1.0" encoding="UTF-8"?><svg id="Livello_2" xmlns="http://www.w3.org/2000/svg" viewBox="0 0 99.93 173"><defs><style>.cls-1{fill:#1e1e28;}</style></defs><g id="presentation_1"><path class="cls-1" d="m94.99,173H4.94c-2.73,0-4.94-2.22-4.94-4.94V4.94C0,2.22,2.22,0,4.94,0h90.05c2.73,0,4.94,2.22,4.94,4.94v163.11c0,2.73-2.22,4.94-4.94,4.94Zm-85.24-9.75h80.44V9.75H9.75v153.51Z"/><path class="cls-1" d="m26.91,45.06c-.79,0-1.14-.35-1.14-1.14v-20.53c0-.79.35-1.14,1.14-1.14h3.29c.82,0,1.33.22,1.87.86l6.15,7.03v-6.75c0-.79.35-1.14,1.14-1.14h4.75c.79,0,1.14.35,1.14,1.14v20.53c0,.79-.35,1.14-1.14,1.14h-4.75c-.79,0-1.14-.35-1.14-1.14v-3.9l-5.42-6.56v10.45c0,.79-.35,1.14-1.14,1.14h-4.75Z"/><path class="cls-1" d="m62.8,45.06c-5.32,0-7.79-2.06-7.79-6.46v-9.88c0-4.4,2.47-6.46,7.79-6.46h8.5c.79,0,1.14.35,1.14,1.14v3.83c0,.79-.35,1.14-1.14,1.14h-7.17c-1.33,0-1.93.51-1.93,1.58v7.57c0,1.08.47,1.55,1.46,1.55h3.65v-4.94c0-.79.35-1.14,1.14-1.14h4.91c.79,0,1.14.35,1.14,1.14v9.79c0,.79-.35,1.14-1.14,1.14h-10.56Z"/><path class="cls-1" d="m26.86,80.34c-.79,0-1.14-.35-1.14-1.14v-20.53c0-.79.35-1.14,1.14-1.14h10.68c5.32,0,7.79,2.06,7.79,6.46v9.88c0,4.4-2.47,6.46-7.79,6.46h-10.68Zm6.05-5.99h3.77c1.01,0,1.49-.48,1.49-1.55v-7.7c0-1.05-.48-1.52-1.49-1.52h-3.77v10.77Z"/><path class="cls-1" d="m56.15,80.37c-.79,0-1.14-.35-1.14-1.14v-20.53c0-.79.35-1.14,1.14-1.14h17.21c.79,0,1.14.35,1.14,1.14v3.71c0,.79-.35,1.14-1.14,1.14h-11.74v2.44h9.18c.79,0,1.14.35,1.14,1.14v3.39c0,.79-.35,1.14-1.14,1.14h-9.18v2.72h11.74c.79,0,1.14.35,1.14,1.14v3.71c0,.79-.35,1.14-1.14,1.14h-17.21Z"/><path class="cls-1" d="m26.96,115.62c-.79,0-1.14-.35-1.14-1.14v-3.71c0-.79.35-1.14,1.14-1.14h10.25c.54,0,.82-.41.82-.92,0-.73-.29-1.01-.82-1.08l-6.48-.79c-2.98-.44-4.91-1.71-4.91-5.26v-3.2c0-3.61,2.44-5.58,6.56-5.58h11.74c.79,0,1.14.35,1.14,1.14v3.77c0,.79-.35,1.14-1.14,1.14h-8.52c-.54,0-.86.38-.86.95s.32.95.86,1.01l4.72.76c2.98.44,4.94,1.71,4.94,5.26v3.2c0,3.61-2.47,5.58-6.56,5.58h-11.74Z"/><path class="cls-1" d="m55.01,114.48v-3.77c0-.79.35-1.14,1.14-1.14h5v-10.64h-5c-.79,0-1.14-.35-1.14-1.14v-3.83c0-.79.35-1.14,1.14-1.14h17.21c.79,0,1.14.35,1.14,1.14v3.83c0,.79-.35,1.14-1.14,1.14h-4.93v10.64h4.93c.79,0,1.14.35,1.14,1.14v3.77c0,.79-.35,1.14-1.14,1.14h-17.21c-.79,0-1.14-.35-1.14-1.14Z"/><path class="cls-1" d="m56.15,150.9c-.79,0-1.14-.35-1.14-1.14v-20.53c0-.79.35-1.14,1.14-1.14h3.29c.82,0,1.33.22,1.87.86l6.15,7.03v-6.75c0-.79.35-1.14,1.14-1.14h4.75c.79,0,1.14.35,1.14,1.14v20.53c0,.79-.35,1.14-1.14,1.14h-4.75c-.79,0-1.14-.35-1.14-1.14v-3.9l-5.42-6.56v10.45c0,.79-.35,1.14-1.14,1.14h-4.75Z"/><path class="cls-1" d="m33.57,150.9c-5.32,0-7.79-2.06-7.79-6.46v-9.88c0-4.4,2.47-6.46,7.79-6.46h8.5c.79,0,1.14.35,1.14,1.14v3.83c0,.79-.35,1.14-1.14,1.14h-7.17c-1.33,0-1.93.51-1.93,1.58v7.57c0,1.08.47,1.55,1.46,1.55h3.65v-4.94c0-.79.35-1.14,1.14-1.14h4.91c.79,0,1.14.35,1.14,1.14v9.79c0,.79-.35,1.14-1.14,1.14h-10.56Z"/></g></svg>