<?xml version="1.0" encoding="UTF-8"?><svg id="Livello_2" xmlns="http://www.w3.org/2000/svg" viewBox="0 0 134.09 46.8"><g id="LOGO_2023"><path d="m2.34,46.8c-1.62,0-2.34-.71-2.34-2.34V2.34C0,.71.71,0,2.34,0h6.76c1.69,0,2.73.46,3.83,1.75l12.61,14.43V2.34c0-1.62.71-2.34,2.34-2.34h9.75c1.62,0,2.34.71,2.34,2.34v42.12c0,1.62-.71,2.34-2.34,2.34h-9.75c-1.62,0-2.34-.71-2.34-2.34v-8l-11.12-13.46v21.45c0,1.62-.71,2.34-2.34,2.34H2.34Z"/><path d="m62.97,46.8c-10.92,0-15.99-4.23-15.99-13.26V13.26c0-9.04,5.07-13.26,15.99-13.26h17.44c1.62,0,2.34.71,2.34,2.34v7.87c0,1.62-.72,2.34-2.34,2.34h-14.71c-2.73,0-3.96,1.04-3.96,3.25v15.54c0,2.21.97,3.19,2.99,3.19h7.5v-10.14c0-1.62.72-2.34,2.34-2.34h10.08c1.63,0,2.34.71,2.34,2.34v20.09c0,1.62-.71,2.34-2.34,2.34h-21.67Z"/><path d="m96.2,46.8c-1.62,0-2.34-.71-2.34-2.34V2.34c0-1.62.71-2.34,2.34-2.34h21.91c10.92,0,15.99,4.23,15.99,13.26v20.28c0,9.04-5.07,13.26-15.99,13.26h-21.91Zm12.42-12.29h7.74c2.08,0,3.06-.98,3.06-3.19v-15.8c0-2.14-.98-3.12-3.06-3.12h-7.74v22.1Z"/></g></svg>