<?xml version="1.0" encoding="UTF-8"?><svg id="Livello_2" xmlns="http://www.w3.org/2000/svg" viewBox="0 0 69.95 121.1"><defs><style>.cls-1{fill:#fff;}</style></defs><g id="presentation_3"><path class="cls-1" d="m66.49,121.1H3.46c-1.91,0-3.46-1.55-3.46-3.46V3.46C0,1.55,1.55,0,3.46,0h63.03c1.91,0,3.46,1.55,3.46,3.46v114.18c0,1.91-1.55,3.46-3.46,3.46Zm-59.67-6.82h56.31V6.82H6.82v107.45Z"/><path class="cls-1" d="m18.84,31.54c-.55,0-.8-.24-.8-.8v-14.37c0-.55.24-.8.8-.8h2.31c.58,0,.93.16,1.31.6l4.3,4.92v-4.72c0-.55.24-.8.8-.8h3.33c.55,0,.8.24.8.8v14.37c0,.55-.24.8-.8.8h-3.33c-.55,0-.8-.24-.8-.8v-2.73l-3.79-4.59v7.32c0,.55-.24.8-.8.8h-3.33Z"/><path class="cls-1" d="m43.96,31.54c-3.73,0-5.46-1.44-5.46-4.52v-6.92c0-3.08,1.73-4.52,5.46-4.52h5.95c.55,0,.8.24.8.8v2.68c0,.55-.24.8-.8.8h-5.02c-.93,0-1.35.35-1.35,1.11v5.3c0,.75.33,1.09,1.02,1.09h2.56v-3.46c0-.55.24-.8.8-.8h3.44c.55,0,.8.24.8.8v6.85c0,.55-.24.8-.8.8h-7.39Z"/><path class="cls-1" d="m18.8,56.24c-.55,0-.8-.24-.8-.8v-14.37c0-.55.24-.8.8-.8h7.47c3.73,0,5.46,1.44,5.46,4.52v6.92c0,3.08-1.73,4.52-5.46,4.52h-7.47Zm4.24-4.19h2.64c.71,0,1.04-.33,1.04-1.09v-5.39c0-.73-.33-1.06-1.04-1.06h-2.64v7.54Z"/><path class="cls-1" d="m39.3,56.26c-.55,0-.8-.24-.8-.8v-14.37c0-.55.24-.8.8-.8h12.05c.55,0,.8.24.8.8v2.59c0,.55-.24.8-.8.8h-8.22v1.71h6.43c.55,0,.8.24.8.8v2.37c0,.55-.24.8-.8.8h-6.43v1.91h8.22c.55,0,.8.24.8.8v2.59c0,.55-.24.8-.8.8h-12.05Z"/><path class="cls-1" d="m18.87,80.93c-.55,0-.8-.24-.8-.8v-2.59c0-.55.24-.8.8-.8h7.18c.38,0,.58-.29.58-.64,0-.51-.2-.71-.58-.75l-4.54-.55c-2.08-.31-3.44-1.2-3.44-3.68v-2.24c0-2.53,1.71-3.9,4.59-3.9h8.22c.55,0,.8.24.8.8v2.64c0,.55-.24.8-.8.8h-5.96c-.38,0-.6.27-.6.67s.22.67.6.71l3.3.53c2.08.31,3.46,1.2,3.46,3.68v2.24c0,2.53-1.73,3.9-4.59,3.9h-8.22Z"/><path class="cls-1" d="m38.5,80.14v-2.64c0-.55.24-.8.8-.8h3.5v-7.45h-3.5c-.55,0-.8-.24-.8-.8v-2.68c0-.55.24-.8.8-.8h12.04c.55,0,.8.24.8.8v2.68c0,.55-.24.8-.8.8h-3.45v7.45h3.45c.55,0,.8.24.8.8v2.64c0,.55-.24.8-.8.8h-12.04c-.55,0-.8-.24-.8-.8Z"/><path class="cls-1" d="m39.31,105.63c-.55,0-.8-.24-.8-.8v-14.37c0-.55.24-.8.8-.8h2.31c.58,0,.93.16,1.31.6l4.3,4.92v-4.72c0-.55.24-.8.8-.8h3.33c.55,0,.8.24.8.8v14.37c0,.55-.24.8-.8.8h-3.33c-.55,0-.8-.24-.8-.8v-2.73l-3.79-4.59v7.32c0,.55-.24.8-.8.8h-3.33Z"/><path class="cls-1" d="m23.5,105.63c-3.73,0-5.46-1.44-5.46-4.52v-6.92c0-3.08,1.73-4.52,5.46-4.52h5.95c.55,0,.8.24.8.8v2.68c0,.55-.24.8-.8.8h-5.02c-.93,0-1.35.35-1.35,1.11v5.3c0,.75.33,1.09,1.02,1.09h2.56v-3.46c0-.55.24-.8.8-.8h3.44c.55,0,.8.24.8.8v6.85c0,.55-.24.8-.8.8h-7.39Z"/></g></svg>