<svg id="Livello_1" data-name="Livello 1" xmlns="http://www.w3.org/2000/svg" viewBox="0 0 512 512"><path d="M1217,429V650c-.93,7.91-1.65,15.85-2.84,23.72-4.56,30.24-16.07,57.3-37.64,79.44-26.46,27.15-59.74,38.93-96.71,42-8.93.75-17.87,1.23-26.81,1.83H871a34.64,34.64,0,0,0-5.39-.77A202.77,202.77,0,0,1,822,792.1c-55.51-11.4-92.28-43.62-108.21-98.54-7.08-24.4-7.31-49.59-7.9-74.69-.37-15.48-.08-31-.17-46.45,0-2.48-.45-4.95-.69-7.42V517a30.48,30.48,0,0,0,.73-8.41c.22-31.6-.77-63.24,3.08-94.71,2.67-21.87,8.64-42.78,20.31-61.62,26.43-42.64,66.67-61.2,115.06-65.57,8.94-.81,18-.06,26.82-1.69h181a13.28,13.28,0,0,0,5.89.8,238.82,238.82,0,0,1,43.68,4.05c57.62,10.48,98.58,50.34,110.81,107.6C1214.61,407.88,1215.54,418.47,1217,429Zm-46.19,112.5h.16c0-13.5.09-27,0-40.49-.23-28.3.51-56.63-3.2-84.8-5.57-42.38-31.6-70.5-73.23-79.21-20.84-4.37-42.08-4.54-63.14-4.59-53.15-.12-106.31-1.23-159.45.7-12.83.46-25.6,1.08-38.27,3.11-40,6.39-66.68,31.54-75.57,71.14-4.26,19-4.69,38.38-4.7,57.62,0,57.31-1.34,114.63.74,171.94.42,11.5,1,23,3.15,34.25,5.77,30.73,21.14,54.38,50.45,67.48,14.49,6.48,30,8.85,45.62,10.09,23.6,1.87,47.28,1.08,70.92,1.8,42.14,1.29,84.3-.3,126.45-.94,14.24-.21,28.59-.9,42.7-3.82,36.36-7.55,60.64-28.25,71.12-64.35,5.36-18.46,5.62-37.53,6.09-56.44C1171.32,597.18,1170.81,569.34,1170.81,541.5Z" transform="translate(-705 -285)"/><path d="M962.15,673.2c-72.76,0-132.42-59.3-132.33-131.84C829.92,468.5,887.8,409,962,409c73.41,0,132,58.41,132,132C1094.05,614.76,1035,672.67,962.15,673.2Zm-.69-47.41c47,0,85.29-37.93,85.34-84.51s-38.25-85.09-84.86-85.08c-46.22,0-84.73,38.25-84.73,84.12C877.21,587.56,914.9,625.8,961.46,625.79Z" transform="translate(-705 -285)"/><path d="M1098.08,435.18c-17.56,0-30.3-13.23-30.26-31.36a31.16,31.16,0,0,1,30.75-30.93c16.78,0,31.64,14.35,31.44,31.13C1129.77,423.37,1113.86,436.5,1098.08,435.18Z" transform="translate(-705 -285)"/></svg>