<svg id="Livello_1" data-name="Livello 1" xmlns="http://www.w3.org/2000/svg" viewBox="0 0 636.69 639.44"><path d="M968.37,855.41c-56.2-.4-104.69-11.86-150.26-35.23a17.82,17.82,0,0,0-13.84-1.51q-76.12,20.24-152.38,40c-2.37.61-5.33,2.8-7.36.47-1.64-1.88.18-4.65.81-7q20.34-74.37,40.76-148.72c1.31-4.72,1.25-8.77-1.25-13.26a307.27,307.27,0,0,1-37.78-123c-5.83-63.93,6.62-124.46,37.42-180.79,32.19-58.9,78.7-103.36,138.86-133.22a306.52,306.52,0,0,1,105.38-30.53c74.83-7.75,144.32,8,207.09,49.33,71.45,47.05,117.32,112.68,136.69,196.32,5.76,24.9,8.76,50.24,7.9,75.78-2.5,74.48-26.73,141-75.09,198.08-49.58,58.55-112.35,94.56-187.8,108.45-4.57.84-9.18,1.47-13.79,2C990.32,854.2,976.89,855.73,968.37,855.41Zm.06-54.92c8,.39,21.73-1,35.23-3.28,69.58-11.69,126.38-45.38,168.8-101.73,44-58.39,60.67-124.6,50-196.8-9.72-65.55-40.57-120.19-91.83-162.35-65.13-53.58-139.78-71.66-222.24-54.86C849.9,293.39,801.3,323.12,762.9,368.78c-47.75,56.79-67.81,122.67-60.84,196.32A249.79,249.79,0,0,0,742.58,680c3.67,5.59,4.1,10.49,2.31,16.73-7.32,25.56-14.2,51.24-21.2,76.89-2.69,9.85-2.26,10.25,7.26,7.75,27-7.09,54-14,81-21.4,5.71-1.57,10-.71,14.92,2.24C868.57,787.37,913.88,800.08,968.43,800.49Z" transform="translate(-643.86 -220.7)"/><path d="M1046.07,690.18c-24.08,1.36-44.84-8.28-65.84-16.41-61.68-23.91-106.2-68.46-144.1-120.86-13.74-19-25.81-38.82-31.37-61.86-8.76-36.29.13-67.43,27.89-92.88,6-5.45,13.14-7,20.76-7.61,6.24-.46,12.39.56,18.54,1.36,5.46.71,8.53,4.59,10.56,9.18,4.49,10.12,8.74,20.36,13,30.57,4.21,10,8.16,20.14,12.61,30,3.63,8.06,3.24,15.39-2.21,22.44s-10.77,14.66-16.59,21.62c-4.74,5.67-5.56,10.91-1.62,17.48,25.6,42.75,61.2,73.69,107.62,92.08,6.12,2.43,11,1.43,15.42-3.66,7.86-9,15.55-18.19,22.68-27.82,6.68-9,10.11-10.11,20.37-5.87,21.54,8.9,42.12,19.8,63,30.07,4.89,2.41,7.82,6.36,7.58,11.55-.64,13.78-1.94,27.75-10.38,39.25-11.93,16.23-29,25-48.11,30C1059.21,690.59,1052.31,690.38,1046.07,690.18Z" transform="translate(-643.86 -220.7)"/></svg>