<svg id="Livello_1" data-name="Livello 1" xmlns="http://www.w3.org/2000/svg" viewBox="0 0 481.25 481.33"><path d="M497.13,256.93q0,105.74,0,211.49c0,17.64-11,28.71-28.63,28.71H355c-7.11,0-7.13,0-7.13-7.3q0-86,0-172c0-6.93,0-7,7-7,16.67,0,33.34-.09,50,.05,4.11,0,5.69-1.19,6.2-5.59,2.26-19.48,4.94-38.91,7.61-58.34,1.05-7.66,1-7.85-6.69-7.85-19.17,0-38.34-.14-57.5.09-4.89.05-6.79-1.25-6.69-6.45.3-15.33,0-30.66.12-46,.1-18.54,10.88-29,29.51-30.05,13-.72,26-.54,39-.59,4,0,5.62-1.32,5.58-5.5-.16-17.83-.1-35.66,0-53.49,0-3.13-.7-4.75-4.36-5.1-18.93-1.82-37.88-2-56.87-1.94-45.65.23-80.19,30.78-85.54,76.11-2.45,20.74-.66,41.61-1.05,62.41-.22,11.72.68,10.47-10.55,10.49-15.5,0-31,.16-46.5-.07-4.64-.07-6,1.52-6,6,.19,19.83.25,39.67,0,59.5-.07,5.27,1.86,6.43,6.7,6.36,16.67-.24,33.34,0,50-.18,4.73-.06,6.4,1.42,6.39,6.26q-.19,87,0,174c0,4.4-1.24,6.18-6,6.17q-113-.16-226-.12c-14.33,0-25.26-11.71-26.17-27.51-.1-1.66-.05-3.33-.05-5q0-208,0-416a43.43,43.43,0,0,1,1.76-13.81C21.37,23.5,31,16.59,43.89,15.94c1.33-.07,2.66,0,4,0H465.38a51.52,51.52,0,0,1,9.43.85c13.37,2.51,22.31,13.06,22.31,26.69Q497.15,150.18,497.13,256.93Z" transform="translate(-15.88 -15.89)"/></svg>