<svg id="Livello_1" data-name="Livello 1" xmlns="http://www.w3.org/2000/svg" viewBox="0 0 361.01 409.11"><path d="M957,745.4c-7.48-1-15-1.92-22.43-3.09-19.13-3-37.46-8.95-55.7-15.25a3.48,3.48,0,0,1-2.53-3.63c0-1.06,0-2.12,0-3.19q0-84.22-.11-168.45c0-4.54,1.39-6.94,5.51-8.81,11.91-5.41,23.15-12,32.9-20.85,11.41-10.39,17.6-23.91,22.43-38.09,6.45-19,10.79-38.36,11.15-58.5a40.77,40.77,0,0,1,.89-7.12c.95-4.72,5.18-9,9.91-9.12,8.08-.22,16.18-.79,24.21,1.22a49.75,49.75,0,0,1,37.8,44.7c.71,10.76-.34,21.47-1.65,32.15-1.42,11.61-3.23,23.15-6.78,34.35-2.27,7.17-2.25,7.17,5.23,7.17,27.81,0,55.62-.06,83.43,0a42,42,0,0,1,27,9.25,35,35,0,0,1,6.6,47.6c-1.67,2.33-2,4-.23,6.64,13.31,19.6,6.44,44.3-15.13,54.18-3.59,1.64-4.07,3.08-3.15,6.81,4.21,17-4.52,33.88-21.23,41.34-3.06,1.37-3.77,2.57-2.87,5.89,5.21,19.25-7.15,38.73-27.59,43.9-1,.26-2,.57-3.05.86Z" transform="translate(-780.41 -336.29)"/><path d="M789.33,745.4c-6.48-2.71-8.93-7.78-8.92-14.57q.06-93.55,0-187.12c0-9.83,5-14.79,14.73-14.81q21.74,0,43.49,0c9.8,0,14.67,4.93,14.67,14.72q0,93.38.09,186.73c0,6.82-2,11.91-8.2,15Z" transform="translate(-780.41 -336.29)"/><path d="M1033.5,336.5a11.8,11.8,0,0,1,10.88,16.59c-3.83,8.88-8.31,17.52-13,26-3.19,5.79-10.18,7.37-16,4.41a12,12,0,0,1-5.71-15.62c4-8.68,8.35-17.21,12.84-25.64C1024.74,338,1028.66,336.17,1033.5,336.5Z" transform="translate(-780.41 -336.29)"/><path d="M924.94,349.1c.12-6.37,3.5-10.84,8.51-12.29,5.2-1.49,11.13.26,13.66,4.93,4.75,8.75,9.28,17.66,13.36,26.75,2.52,5.61-.4,12.26-5.7,15s-12.55,1.39-15.86-4a201.89,201.89,0,0,1-13.55-27.08A9.17,9.17,0,0,1,924.94,349.1Z" transform="translate(-780.41 -336.29)"/><path d="M1069.21,408.34c3.86,0,7.71,0,11.57,0a12.37,12.37,0,0,1,12.62,11.41,11.93,11.93,0,0,1-10.13,12.77,102.32,102.32,0,0,1-29,0c-6-.86-10-6.57-9.56-12.8a11.74,11.74,0,0,1,11.32-11.28c4.38-.2,8.77,0,13.16,0Z" transform="translate(-780.41 -336.29)"/><path d="M900.77,408.34c4.11,0,8.23-.07,12.35,0,6.49.14,11.47,4.55,12,10.51.65,6.89-3.2,12.77-9.86,13.7a102.26,102.26,0,0,1-28.55,0,11.82,11.82,0,0,1-10-12.81c.66-6.82,5.56-11.31,12.49-11.39C893.06,408.31,896.91,408.34,900.77,408.34Z" transform="translate(-780.41 -336.29)"/></svg>